<?xml version="1.0" standalone="no"?>
<!DOCTYPE svg PUBLIC "-//W3C//DTD SVG 20010904//EN"
 "http://www.w3.org/TR/2001/REC-SVG-20010904/DTD/svg10.dtd">
<svg version="1.0" xmlns="http://www.w3.org/2000/svg"
 width="209.000000pt" height="209.000000pt" viewBox="0 0 209.000000 209.000000"
 preserveAspectRatio="xMidYMid meet">
<metadata>
Created by potrace 1.11, written by Peter Selinger 2001-2013
</metadata>
<g transform="translate(0.000000,209.000000) scale(0.100000,-0.100000)"
fill="#000000" stroke="none">
<path d="M978 1786 c-107 -38 -169 -129 -164 -241 10 -252 350 -327 460 -102
98 199 -91 416 -296 343z m147 -75 c48 -21 91 -69 100 -110 16 -73 -98 -182
-206 -197 -36 -5 -49 -2 -72 16 -99 78 -79 238 37 291 52 23 90 23 141 0z"/>
<path d="M910 1225 c-139 -37 -249 -140 -290 -271 -38 -124 -21 -231 42 -265
17 -10 114 -13 392 -14 357 0 371 0 400 20 49 33 58 59 53 161 -4 77 -10 100
-37 154 -58 114 -166 197 -290 220 -69 13 -211 11 -270 -5z m308 -79 c90 -33
182 -119 182 -171 0 -27 -53 -90 -100 -120 -98 -62 -257 -105 -390 -107 -96
-1 -153 15 -197 56 -30 27 -35 39 -35 73 0 23 12 65 26 95 46 95 119 156 216
181 70 19 239 15 298 -7z"/>
<path d="M1839 648 c0 -18 0 -65 0 -105 l1 -72 -28 16 c-96 55 -195 -80 -111
-151 36 -30 93 -35 121 -9 17 15 18 15 18 0 0 -10 5 -17 10 -17 6 0 10 66 10
179 0 109 -4 182 -10 186 -6 4 -10 -8 -11 -27z m-45 -179 c13 -7 30 -25 37
-41 32 -78 -87 -136 -124 -60 -25 50 -2 92 60 111 1 1 13 -4 27 -10z"/>
<path d="M1937 673 c-4 -3 -7 -87 -7 -185 0 -139 3 -179 13 -176 6 3 12 19 13
36 0 36 20 64 32 46 31 -46 67 -84 79 -84 10 0 2 18 -25 56 l-40 56 30 27 c17
15 29 33 27 39 -3 8 -22 -3 -49 -27 -25 -22 -47 -41 -50 -41 -3 0 -5 54 -5
120 1 117 -4 148 -18 133z"/>
<path d="M171 588 c1 -129 3 -122 -23 -104 -59 41 -136 -2 -143 -79 -2 -28 21
-72 44 -85 29 -15 83 -12 109 6 12 8 21 12 20 7 -2 -4 2 -8 7 -8 15 0 13 337
-2 342 -8 3 -12 -19 -12 -79z m-16 -141 c23 -33 19 -73 -11 -96 -15 -12 -34
-21 -44 -21 -30 0 -70 39 -70 69 0 71 86 104 125 48z"/>
<path d="M1270 555 c0 -51 -5 -60 -32 -57 -3 1 -9 -5 -12 -13 -4 -11 2 -15 19
-15 25 0 25 -2 25 -80 0 -47 4 -80 10 -80 11 0 13 22 11 108 -1 52 -1 52 30
52 20 0 29 4 27 13 -3 6 -16 12 -29 12 -25 0 -26 2 -28 78 -2 59 -21 43 -21
-18z"/>
<path d="M1382 494 c2 -15 13 -20 56 -22 28 -2 52 -5 52 -7 0 -3 -27 -33 -60
-67 -33 -35 -60 -69 -60 -76 0 -10 21 -12 85 -10 94 3 114 22 25 24 -30 1 -59
2 -63 3 -5 0 21 31 57 68 43 45 62 71 55 78 -5 5 -33 10 -62 11 -29 1 -60 5
-71 9 -14 6 -17 4 -14 -11z"/>
<path d="M314 490 c-31 -12 -61 -55 -58 -82 1 -13 3 -29 3 -36 1 -7 12 -24 26
-37 29 -30 88 -34 125 -8 22 16 23 16 17 0 -4 -11 -1 -17 8 -17 12 0 15 17 15
89 0 84 -10 121 -24 85 -5 -14 -8 -14 -28 0 -25 17 -52 19 -84 6z m91 -40 c42
-47 -14 -135 -72 -114 -62 21 -69 104 -11 128 36 15 60 11 83 -14z"/>
<path d="M480 493 c0 -6 21 -52 46 -104 l46 -94 31 63 c17 34 34 62 37 62 3
-1 17 -28 33 -62 15 -33 29 -59 31 -57 18 20 94 189 86 194 -5 3 -27 -29 -48
-72 l-39 -77 -33 71 c-35 76 -67 108 -55 54 4 -21 -1 -43 -18 -78 l-25 -48
-31 67 c-29 61 -61 103 -61 81z"/>
<path d="M882 487 c-57 -32 -66 -112 -18 -154 32 -28 91 -31 118 -6 17 15 18
15 18 0 0 -10 6 -17 13 -17 10 0 13 23 13 93 -1 57 -5 91 -11 89 -5 -2 -9 -8
-7 -13 3 -12 -1 -11 -34 6 -35 18 -61 18 -92 2z m100 -41 c25 -30 22 -63 -7
-91 -30 -30 -54 -31 -89 -4 -46 37 -29 109 29 121 28 6 47 -1 67 -26z"/>
<path d="M1107 493 c-9 -14 -11 -172 -3 -181 12 -11 18 9 21 65 1 32 3 61 4
65 0 4 17 16 37 26 21 11 32 22 26 26 -13 8 -62 -13 -63 -28 -1 -6 -4 0 -8 14
-5 16 -9 21 -14 13z"/>
<path d="M1596 343 c-12 -12 -6 -33 9 -33 8 0 15 6 15 14 0 17 -14 28 -24 19z"/>
</g>
</svg>
